<?xml version="1.0" standalone="no"?>
<!DOCTYPE svg PUBLIC "-//W3C//DTD SVG 20010904//EN"
 "http://www.w3.org/TR/2001/REC-SVG-20010904/DTD/svg10.dtd">
<svg version="1.0" xmlns="http://www.w3.org/2000/svg"
 width="928.000000pt" height="928.000000pt" viewBox="0 0 928.000000 928.000000"
 preserveAspectRatio="xMidYMid meet">
<metadata>
Created by potrace 1.14, written by Peter Selinger 2001-2017
</metadata>
<g transform="translate(0.000000,928.000000) scale(0.100000,-0.100000)"
fill="#000000" stroke="none">
<path d="M4362 6173 c-34 -30 -382 -642 -382 -672 0 -16 10 -37 23 -49 20 -19
35 -22 110 -22 l88 0 -3 -577 -3 -578 -24 -45 c-46 -89 -112 -140 -210 -161
-129 -27 -285 69 -321 200 -6 21 -10 212 -10 474 0 282 -4 454 -11 481 -40
158 -248 215 -361 99 -69 -71 -68 -63 -68 -548 0 -239 -2 -435 -5 -435 -3 0
-22 7 -43 16 -111 47 -108 47 -524 51 l-397 4 -25 26 c-22 22 -26 35 -26 84 0
47 5 63 24 86 l24 28 289 5 288 5 46 27 c129 76 151 259 42 359 -68 63 -71 64
-384 64 l-287 0 -4 61 c-5 74 -37 130 -100 171 l-42 28 -805 3 -806 2 -52 -30
c-74 -42 -108 -103 -108 -190 0 -80 32 -142 97 -186 l43 -29 288 -3 287 -3 0
-551 c0 -384 3 -562 11 -589 28 -91 114 -153 214 -153 91 0 157 40 201 124 18
33 19 71 22 603 l3 567 194 0 c107 0 195 -3 195 -6 0 -3 -11 -20 -26 -36 -33
-40 -68 -110 -88 -177 -20 -69 -22 -274 -2 -347 37 -139 148 -274 277 -338
123 -60 168 -66 575 -66 350 0 362 -1 388 -21 26 -20 34 -57 20 -94 -17 -44
-35 -45 -574 -45 -563 0 -551 1 -619 -63 -109 -103 -90 -277 39 -354 l54 -33
551 0 c602 0 602 0 721 60 126 64 218 173 264 309 l26 78 30 -24 c42 -36 179
-100 254 -120 86 -23 261 -23 350 0 36 10 101 35 145 57 152 75 253 176 326
326 76 154 72 120 76 797 l4 607 73 0 c63 0 75 3 94 23 12 13 22 35 22 50 0
30 -348 641 -382 670 -11 9 -30 17 -43 17 -13 0 -32 -8 -43 -17z"/>
<path d="M4944 5328 c-32 -15 -44 -51 -44 -133 l0 -75 34 0 c33 0 35 2 38 38
3 32 7 37 31 40 21 3 27 9 27 28 0 20 -5 24 -31 24 -24 0 -30 4 -27 17 4 22
34 29 53 13 11 -9 15 -34 15 -86 l0 -74 36 0 37 0 -5 87 c-4 79 -7 88 -32 110
-29 25 -93 31 -132 11z"/>
<path d="M5159 5310 c-25 -24 -28 -33 -19 -49 5 -11 10 -38 10 -61 0 -62 13
-80 60 -80 36 0 40 3 40 25 0 16 -6 25 -15 25 -11 0 -15 11 -15 43 0 24 -5 48
-11 54 -9 9 -5 14 15 19 42 10 56 -10 56 -82 0 -53 3 -65 22 -78 18 -13 25
-13 55 -1 18 8 33 10 33 4 0 -5 14 -9 30 -9 l30 0 0 110 0 110 -30 0 -30 0 0
-63 c0 -56 -11 -87 -31 -87 -3 0 -9 24 -12 53 -8 70 -38 97 -108 97 -43 0 -55
-5 -80 -30z"/>
<path d="M5470 5300 c0 -25 50 -60 85 -60 32 0 35 2 35 29 0 25 -4 29 -37 35
-56 9 -83 7 -83 -4z"/>
<path d="M5476 5212 c-3 -4 1 -19 7 -33 10 -19 21 -25 60 -27 45 -3 47 -2 47
22 0 21 -5 26 -25 26 -14 0 -25 5 -25 10 0 12 -57 14 -64 2z"/>
<path d="M5790 5005 c-20 -21 -32 -25 -84 -25 -43 0 -71 -6 -93 -20 -38 -23
-40 -30 -13 -55 19 -17 21 -17 56 0 43 20 87 12 92 -18 3 -14 -4 -17 -40 -17
-90 -1 -152 -52 -141 -118 8 -57 41 -82 109 -82 31 0 34 3 34 28 0 22 -7 30
-30 39 -54 20 -28 63 39 63 l31 0 0 -65 0 -65 46 0 46 0 -3 134 c-3 116 -2
137 13 153 17 19 17 21 -10 46 l-28 27 -24 -25z"/>
<path d="M6305 4935 l-70 -54 -3 44 -3 45 -45 0 -44 0 0 -150 0 -150 45 0 45
0 0 54 c0 52 2 56 40 86 23 18 43 30 46 27 3 -3 6 -42 7 -86 l0 -81 44 0 43 0
0 80 c0 55 -5 91 -16 112 -16 30 -15 32 6 48 l23 17 -24 32 c-12 17 -23 31
-23 31 -1 0 -32 -25 -71 -55z"/>
<path d="M4985 4973 c-11 -3 -33 -14 -48 -26 l-29 -20 26 -26 c25 -25 26 -25
55 -8 63 37 101 10 102 -72 1 -42 -3 -57 -20 -74 -20 -20 -23 -21 -49 -7 -15
9 -28 23 -30 33 -3 13 4 17 32 17 33 0 36 2 36 30 l0 30 -80 0 c-90 0 -87 3
-69 -78 15 -71 44 -95 122 -100 53 -3 66 -1 91 19 73 58 75 216 3 264 -26 17
-109 27 -142 18z"/>
<path d="M5283 4960 c-46 -28 -53 -48 -53 -150 0 -83 2 -93 25 -115 19 -20 34
-25 75 -25 49 0 50 1 50 30 0 27 -3 30 -30 30 -32 0 -32 0 -32 85 0 69 -1 67
28 49 24 -16 26 -16 55 5 l29 22 0 -111 0 -110 40 0 40 0 0 115 c0 131 -11
165 -60 185 -28 12 -33 11 -55 -10 l-25 -23 -23 21 c-28 27 -25 26 -64 2z"/>
<path d="M5908 4965 c-15 -8 -32 -24 -38 -35 -9 -16 -6 -22 21 -35 28 -15 32
-15 48 -1 22 20 47 20 55 0 3 -9 6 -63 6 -120 l0 -104 40 0 40 0 0 124 c0 116
-2 127 -23 152 -29 33 -106 43 -149 19z"/>
<path d="M6535 4966 c-17 -7 -43 -28 -58 -46 -26 -30 -27 -34 -12 -56 10 -16
15 -49 15 -109 l0 -85 41 0 41 0 -3 115 c-4 122 -3 125 45 125 40 0 46 -18 46
-132 l0 -108 45 0 45 0 0 110 c0 128 -12 164 -65 186 -42 17 -100 17 -140 0z"/>
<path d="M6821 4954 c-25 -20 -31 -34 -31 -63 0 -47 21 -68 92 -91 39 -13 53
-22 53 -36 0 -27 -48 -30 -84 -5 l-28 20 -27 -28 c-25 -26 -26 -28 -9 -44 61
-54 201 -47 233 12 17 32 12 89 -9 110 -11 11 -39 25 -63 32 -24 6 -49 13 -55
15 -18 5 -16 33 3 41 8 3 28 -4 43 -15 l28 -21 34 28 33 28 -41 22 c-61 31
-132 29 -172 -5z"/>
<path d="M7091 4954 c-25 -20 -31 -34 -31 -63 0 -47 21 -68 92 -91 39 -13 53
-22 53 -36 0 -27 -48 -30 -84 -5 l-28 20 -27 -28 c-25 -26 -26 -28 -9 -44 61
-54 201 -47 233 12 17 32 12 89 -9 110 -11 11 -39 25 -63 32 -24 6 -49 13 -55
15 -18 5 -16 33 3 41 8 3 28 -3 43 -15 l28 -20 32 26 33 25 -38 24 c-56 33
-132 32 -173 -3z"/>
<path d="M7905 4966 c-17 -7 -43 -28 -58 -46 -26 -30 -27 -34 -12 -56 10 -16
15 -49 15 -109 l0 -85 41 0 41 0 -3 115 c-4 122 -3 125 45 125 40 0 46 -18 46
-132 l0 -108 45 0 45 0 0 110 c0 128 -12 164 -65 186 -42 17 -100 17 -140 0z"/>
<path d="M8563 4960 c-46 -28 -53 -48 -53 -150 0 -83 2 -93 25 -115 19 -20 34
-25 75 -25 49 0 50 1 50 30 0 27 -3 30 -30 30 -32 0 -32 -1 -32 75 -1 78 -1
78 28 59 24 -16 26 -16 55 5 l29 22 0 -111 0 -110 40 0 40 0 0 115 c0 131 -11
165 -60 185 -28 12 -33 11 -55 -10 l-25 -23 -23 21 c-28 27 -25 26 -64 2z"/>
<path d="M8881 4954 c-25 -20 -31 -34 -31 -63 0 -47 21 -68 92 -91 39 -13 53
-22 53 -36 0 -27 -48 -30 -84 -5 l-28 20 -27 -28 c-25 -26 -26 -28 -9 -44 61
-54 201 -47 233 12 17 32 12 89 -9 110 -11 11 -39 25 -63 32 -24 6 -49 13 -55
15 -18 5 -16 33 3 41 8 3 28 -3 43 -14 l27 -21 34 28 34 28 -42 21 c-60 31
-131 29 -171 -5z"/>
<path d="M7350 4820 l0 -150 45 0 c38 0 45 3 45 20 0 25 8 25 40 0 14 -11 41
-20 62 -20 59 0 68 22 68 172 l0 128 -45 0 -45 0 0 -111 0 -110 -40 28 -40 28
0 83 0 82 -45 0 -45 0 0 -150z"/>
<path d="M7670 4840 c0 -156 7 -170 90 -170 49 0 50 1 50 30 0 25 -4 30 -25
30 l-25 0 0 120 0 120 -45 0 -45 0 0 -130z"/>
<path d="M8170 4866 c0 -122 8 -149 52 -177 27 -16 46 -19 97 -16 57 3 67 7
92 35 18 20 29 43 29 62 0 23 4 30 20 30 16 0 20 7 20 30 0 23 -4 30 -20 30
-18 0 -20 7 -20 55 l0 55 -46 0 -46 0 4 -32 c3 -18 1 -44 -3 -58 -4 -16 -7
-19 -8 -7 -1 13 -10 17 -41 17 l-40 0 0 40 0 40 -45 0 -45 0 0 -104z"/>
<path d="M5050 4595 c0 -24 5 -35 15 -35 10 0 15 -10 15 -30 0 -29 2 -30 45
-30 l45 0 0 48 c0 61 -20 82 -78 82 -41 0 -42 -1 -42 -35z"/>
<path d="M5870 4600 c0 -18 -7 -20 -70 -20 l-70 0 0 -30 0 -30 115 0 115 0 0
50 0 50 -45 0 c-38 0 -45 -3 -45 -20z"/>
<path d="M5893 4457 c-40 -43 -40 -43 -63 -25 -31 25 -74 23 -107 -7 l-28 -25
24 -20 c22 -19 25 -20 42 -4 33 30 33 6 0 -31 -17 -20 -32 -43 -33 -53 0 -9
-2 -24 -3 -32 -3 -31 18 -71 46 -85 15 -8 51 -15 79 -15 44 0 56 5 81 29 27
27 29 35 29 103 0 44 -5 79 -12 86 -9 9 -6 18 15 40 l27 28 -28 27 -29 28 -40
-44z"/>
<path d="M5263 4451 c-38 -24 -40 -32 -13 -56 19 -17 21 -17 56 0 43 20 87 12
92 -18 3 -14 -4 -17 -40 -17 -94 -1 -151 -51 -141 -125 6 -45 34 -67 92 -73
51 -5 51 -4 51 25 0 23 -6 31 -30 40 -54 20 -28 63 39 63 l31 0 0 -65 0 -65
46 0 46 0 -4 125 c-3 120 -4 126 -30 152 -24 23 -37 28 -95 31 -55 2 -74 -1
-100 -17z"/>
<path d="M6044 4460 c-21 -8 -54 -46 -54 -62 0 -4 14 -15 31 -24 30 -15 32
-15 46 5 16 24 61 28 69 7 5 -14 8 -78 5 -123 -2 -32 -31 -45 -64 -28 -23 12
-27 11 -48 -11 -21 -23 -22 -26 -6 -41 21 -21 114 -28 147 -11 38 20 60 73 60
148 0 74 -23 124 -66 140 -31 12 -91 12 -120 0z"/>
<path d="M6341 4452 c-19 -9 -44 -29 -55 -44 l-20 -28 22 -30 c30 -40 32 -120
2 -120 -16 0 -20 -7 -20 -35 l0 -35 49 0 c64 0 75 15 79 104 3 57 1 75 -12 85
-32 27 -13 51 38 51 45 0 56 -28 56 -138 l0 -102 46 0 46 0 -4 115 c-5 124
-16 155 -69 182 -35 18 -118 16 -158 -5z"/>
<path d="M6638 4455 c-15 -8 -32 -24 -38 -35 -9 -16 -6 -22 21 -35 28 -15 32
-15 48 -1 22 20 47 20 55 0 3 -9 6 -63 6 -120 l0 -104 40 0 40 0 0 124 c0 116
-2 127 -23 152 -29 33 -106 43 -149 19z"/>
<path d="M4900 4332 c0 -160 6 -172 86 -172 53 0 54 0 54 29 0 23 -5 30 -22
33 -22 3 -23 7 -26 121 l-3 117 -44 0 -45 0 0 -128z"/>
<path d="M5056 4452 c-3 -5 -4 -63 -2 -130 3 -147 11 -162 88 -162 46 0 48 1
48 29 0 23 -5 30 -22 33 -22 3 -23 7 -26 121 l-3 117 -39 0 c-21 0 -41 -4 -44
-8z"/>
<path d="M6879 4310 l26 -150 36 0 c35 0 36 1 64 73 15 39 31 76 35 80 4 4 20
-27 37 -70 29 -76 31 -78 66 -81 31 -3 37 0 41 20 9 38 46 256 46 268 0 5 -18
10 -40 10 -37 0 -39 -2 -45 -37 -4 -21 -10 -56 -13 -77 l-7 -40 -24 77 c-24
75 -25 77 -57 77 -32 0 -34 -2 -55 -70 -25 -77 -33 -75 -44 13 l-6 57 -43 0
-43 0 26 -150z"/>
<path d="M5530 4397 c0 -12 7 -33 16 -45 13 -19 24 -22 80 -22 l64 0 0 30 c0
28 -2 30 -40 30 -29 0 -40 4 -40 15 0 11 -11 15 -40 15 -35 0 -40 -3 -40 -23z"/>
<path d="M5530 4277 c0 -12 7 -33 16 -45 13 -19 24 -22 80 -22 l64 0 0 30 c0
28 -2 30 -40 30 -29 0 -40 4 -40 15 0 11 -11 15 -40 15 -35 0 -40 -3 -40 -23z"/>
<path d="M5012 3983 c-72 -35 -120 -125 -107 -202 9 -51 53 -110 100 -135 39
-20 53 -21 480 -21 242 0 452 3 467 8 35 9 94 61 114 98 17 33 19 116 3 156
-14 38 -46 71 -91 94 -35 18 -64 19 -485 19 -391 0 -452 -3 -481 -17z"/>
<path d="M53 3028 c-2 -5 14 -8 36 -8 23 0 41 3 41 8 0 4 -16 7 -36 7 -20 0
-38 -3 -41 -7z"/>
<path d="M218 3028 c-8 -4 7 -8 36 -8 27 0 46 3 42 7 -9 10 -63 11 -78 1z"/>
<path d="M395 3029 c-14 -5 -5 -8 29 -8 27 -1 47 2 44 5 -10 9 -52 11 -73 3z"/>
<path d="M557 3028 c-7 -4 7 -8 31 -8 23 0 42 4 42 8 0 10 -58 10 -73 0z"/>
<path d="M723 3028 c-2 -5 14 -8 36 -8 23 0 41 3 41 8 0 4 -16 7 -36 7 -20 0
-38 -3 -41 -7z"/>
<path d="M888 3028 c-8 -4 7 -8 36 -8 27 0 46 3 42 7 -9 10 -63 11 -78 1z"/>
<path d="M1054 3028 c-3 -4 16 -8 42 -8 26 0 45 3 41 6 -10 10 -77 12 -83 2z"/>
<path d="M1220 3028 c0 -4 19 -8 42 -8 23 0 38 3 34 7 -10 11 -76 11 -76 1z"/>
<path d="M1389 3029 c-9 -6 3 -9 35 -9 27 0 47 2 45 4 -10 10 -67 13 -80 5z"/>
<path d="M1550 3028 c0 -4 19 -8 42 -8 23 0 38 3 34 7 -9 10 -76 10 -76 1z"/>
<path d="M1717 3028 c-7 -4 10 -8 37 -8 27 0 46 3 42 7 -10 10 -64 11 -79 1z"/>
<path d="M1887 3028 c-7 -4 9 -8 37 -8 27 0 47 3 43 6 -9 9 -66 11 -80 2z"/>
<path d="M2053 3028 c-2 -5 14 -8 36 -8 23 0 41 3 41 8 0 4 -16 7 -36 7 -20 0
-38 -3 -41 -7z"/>
<path d="M2219 3029 c-9 -6 2 -9 35 -9 27 0 46 3 42 7 -10 11 -61 12 -77 2z"/>
<path d="M2400 3029 c-19 -5 -13 -7 24 -8 27 -1 46 2 42 6 -9 9 -37 10 -66 2z"/>
<path d="M2557 3028 c-7 -4 7 -8 31 -8 23 0 42 4 42 8 0 10 -58 10 -73 0z"/>
<path d="M2720 3028 c0 -4 19 -8 42 -8 23 0 38 3 34 7 -10 10 -76 11 -76 1z"/>
<path d="M2888 3029 c-8 -6 6 -9 36 -9 27 0 47 2 44 5 -9 9 -66 12 -80 4z"/>
<path d="M3050 3028 c0 -4 21 -8 47 -8 25 0 44 3 40 6 -9 10 -87 11 -87 2z"/>
<path d="M3220 3028 c0 -4 19 -8 42 -8 23 0 38 3 34 7 -10 10 -76 11 -76 1z"/>
<path d="M3395 3029 c-14 -5 -5 -8 29 -8 27 -1 47 2 44 5 -10 9 -52 11 -73 3z"/>
<path d="M3550 3028 c0 -5 18 -8 40 -8 22 0 40 3 40 8 0 4 -18 7 -40 7 -22 0
-40 -3 -40 -7z"/>
<path d="M3720 3028 c0 -4 19 -8 42 -8 23 0 38 3 34 7 -10 10 -76 11 -76 1z"/>
<path d="M3888 3029 c-8 -6 6 -9 36 -9 27 0 47 2 44 5 -9 9 -66 12 -80 4z"/>
<path d="M4050 3028 c0 -5 18 -8 40 -8 22 0 40 3 40 8 0 4 -18 7 -40 7 -22 0
-40 -3 -40 -7z"/>
<path d="M4220 3028 c0 -4 19 -8 42 -8 23 0 38 3 34 7 -9 10 -76 10 -76 1z"/>
<path d="M4395 3029 c-14 -5 -5 -8 29 -8 27 -1 47 2 44 5 -10 9 -52 11 -73 3z"/>
<path d="M4557 3028 c-7 -4 7 -8 31 -8 23 0 42 4 42 8 0 10 -58 10 -73 0z"/>
<path d="M4723 3028 c-2 -5 14 -8 36 -8 23 0 41 3 41 8 0 4 -16 7 -36 7 -20 0
-38 -3 -41 -7z"/>
<path d="M4888 3028 c-8 -4 7 -8 36 -8 27 0 46 3 42 7 -9 10 -63 11 -78 1z"/>
<path d="M5054 3028 c-3 -4 16 -8 42 -8 26 0 45 3 41 6 -10 10 -77 12 -83 2z"/>
<path d="M5220 3028 c0 -5 18 -8 40 -8 22 0 40 3 40 8 0 4 -18 7 -40 7 -22 0
-40 -3 -40 -7z"/>
<path d="M5387 3028 c-7 -4 10 -8 37 -8 27 0 46 3 42 7 -10 10 -64 11 -79 1z"/>
<path d="M5553 3028 c-2 -5 14 -8 36 -8 23 0 41 4 41 9 0 10 -70 9 -77 -1z"/>
<path d="M5720 3028 c0 -5 19 -8 42 -8 23 0 38 3 34 8 -10 9 -76 9 -76 0z"/>
<path d="M5895 3029 c-14 -5 -4 -8 29 -8 27 -1 46 2 42 6 -10 10 -48 11 -71 2z"/>
<path d="M6058 3029 c-8 -6 4 -9 31 -9 24 0 41 3 37 7 -10 10 -53 11 -68 2z"/>
<path d="M6214 3028 c-3 -4 16 -8 42 -8 26 0 44 3 41 6 -10 10 -77 12 -83 2z"/>
<path d="M6388 3029 c-8 -6 5 -9 36 -9 27 0 47 3 43 6 -10 10 -64 12 -79 3z"/>
<path d="M6550 3028 c0 -4 21 -8 47 -8 25 0 44 3 40 6 -9 10 -87 11 -87 2z"/>
<path d="M6723 3028 c-2 -5 14 -8 36 -8 23 0 41 3 41 8 0 4 -16 7 -36 7 -20 0
-38 -3 -41 -7z"/>
<path d="M6888 3029 c-8 -6 5 -9 36 -9 27 0 47 3 43 6 -10 10 -64 12 -79 3z"/>
<path d="M7050 3028 c0 -5 18 -8 40 -8 22 0 40 3 40 8 0 4 -18 7 -40 7 -22 0
-40 -3 -40 -7z"/>
<path d="M7225 3029 c-14 -5 -5 -8 29 -8 27 -1 47 2 44 5 -10 9 -52 11 -73 3z"/>
<path d="M7388 3029 c-8 -6 5 -9 36 -9 27 0 47 3 43 6 -10 10 -64 12 -79 3z"/>
<path d="M7557 3028 c-7 -4 7 -8 31 -8 23 0 42 4 42 8 0 10 -58 10 -73 0z"/>
<path d="M7720 3028 c0 -4 19 -8 42 -8 23 0 38 3 34 7 -9 10 -76 10 -76 1z"/>
<path d="M7888 3029 c-8 -6 5 -9 36 -9 27 0 47 3 43 6 -10 10 -64 12 -79 3z"/>
<path d="M8054 3028 c-3 -4 14 -8 37 -8 23 0 39 3 35 7 -10 10 -66 11 -72 1z"/>
<path d="M8213 3028 c-2 -5 16 -8 41 -8 25 0 46 3 46 8 0 4 -18 7 -41 7 -22 0
-43 -3 -46 -7z"/>
<path d="M8388 3029 c-8 -6 5 -9 36 -9 27 0 47 3 43 6 -10 10 -64 12 -79 3z"/>
<path d="M8553 3028 c-2 -5 14 -8 36 -8 23 0 41 3 41 8 0 4 -16 7 -36 7 -20 0
-38 -3 -41 -7z"/>
<path d="M8720 3028 c0 -4 19 -8 42 -8 23 0 39 3 35 6 -9 10 -77 12 -77 2z"/>
<path d="M8888 3029 c-8 -6 5 -9 36 -9 27 0 47 3 43 6 -10 10 -64 12 -79 3z"/>
<path d="M9054 3028 c-3 -4 16 -8 42 -8 26 0 45 3 41 6 -10 10 -77 12 -83 2z"/>
<path d="M9220 3028 c0 -4 14 -8 30 -8 17 0 30 3 30 8 0 4 -13 7 -30 7 -16 1
-30 -3 -30 -7z"/>
</g>
</svg>
